<svg width="40" height="40" viewBox="0 0 40 40" fill="none" xmlns="http://www.w3.org/2000/svg">
<path d="M10.8613 18.1667L20.0279 3.33337L29.1946 18.1667H10.8613ZM29.3333 36.6667C27.2686 36.6667 25.5301 35.9607 24.1179 34.5488C22.706 33.1366 22 31.3981 22 29.3334C22 27.2687 22.706 25.5302 24.1179 24.118C25.5301 22.706 27.2686 22 29.3333 22C31.3981 22 33.1365 22.706 34.5487 24.118C35.9607 25.5302 36.6667 27.2687 36.6667 29.3334C36.6667 31.3981 35.9607 33.1366 34.5487 34.5488C33.1365 35.9607 31.3981 36.6667 29.3333 36.6667ZM5 35.6946V22.8055H17.8888V35.6946H5ZM29.3358 33.8888C30.6119 33.8888 31.6899 33.4482 32.5696 32.5671C33.449 31.686 33.8888 30.6073 33.8888 29.3309C33.8888 28.0548 33.4482 26.9768 32.5671 26.0971C31.686 25.2177 30.6072 24.778 29.3308 24.778C28.0547 24.778 26.9768 25.2185 26.0971 26.0996C25.2176 26.9807 24.7779 28.0595 24.7779 29.3359C24.7779 30.612 25.2185 31.6899 26.0996 32.5696C26.9807 33.4491 28.0594 33.8888 29.3358 33.8888ZM7.77792 32.9167H15.1113V25.5834H7.77792V32.9167ZM15.8333 15.3888H24.2221L20.0279 8.61129L15.8333 15.3888Z" fill="#1D2E6C"/>
</svg>
