<svg width="40" height="40" viewBox="0 0 40 40" fill="none" xmlns="http://www.w3.org/2000/svg">
<path d="M5 7.77792V5H35V7.77792H5ZM32.2221 11.6667C32.9721 11.6667 33.6226 11.9421 34.1737 12.4929C34.7246 13.044 35 13.6946 35 14.4446V32.2221C35 32.9721 34.7246 33.6226 34.1737 34.1737C33.6226 34.7246 32.9721 35 32.2221 35H7.77792C7.02792 35 6.37736 34.7246 5.82625 34.1737C5.27542 33.6226 5 32.9721 5 32.2221V14.4446C5 13.6946 5.27542 13.044 5.82625 12.4929C6.37736 11.9421 7.02792 11.6667 7.77792 11.6667H32.2221ZM32.2221 14.4446H7.77792V32.2221H32.2221V14.4446Z" fill="#1D2E6C"/>
</svg>
