<svg width="40" height="40" viewBox="0 0 40 40" fill="none" xmlns="http://www.w3.org/2000/svg">
<path d="M9.44457 36.6667C8.68068 36.6667 8.02666 36.3948 7.48249 35.8509C6.9386 35.3067 6.66666 34.6527 6.66666 33.8888V27.5H9.44457V33.8888H30.5554V27.5H33.3333V33.8888C33.3333 34.6527 33.0614 35.3067 32.5175 35.8509C31.9733 36.3948 31.3193 36.6667 30.5554 36.6667H9.44457ZM6.66666 19.1667V6.11129C6.66666 5.3474 6.9386 4.69337 7.48249 4.14921C8.02666 3.60532 8.68068 3.33337 9.44457 3.33337H23.9167L33.3333 12.75V19.1667H30.5554V14.0555H22.5279V6.11129H9.44457V19.1667H6.66666ZM1.66666 24.7221V21.9446H38.3333V24.7221H1.66666Z" fill="#1D2E6C"/>
</svg>
