<svg width="24" height="24" viewBox="0 0 24 24" fill="none" xmlns="http://www.w3.org/2000/svg">
<path d="M11.9998 17C12.2499 17 12.4598 16.9154 12.6293 16.7463C12.7986 16.5769 12.8833 16.3672 12.8833 16.117C12.8833 15.8668 12.7987 15.657 12.6295 15.4875C12.4602 15.318 12.2504 15.2332 12.0003 15.2332C11.7501 15.2332 11.5403 15.3179 11.3708 15.4873C11.2014 15.6564 11.1168 15.8662 11.1168 16.1165C11.1168 16.3667 11.2013 16.5764 11.3705 16.7458C11.5398 16.9152 11.7496 17 11.9998 17ZM11.2168 13.1168H12.8833V6.9H11.2168V13.1168ZM12.0045 22C10.624 22 9.32675 21.7375 8.11275 21.2125C6.89875 20.6875 5.83892 19.9723 4.93325 19.0668C4.02775 18.1611 3.3125 17.1008 2.7875 15.886C2.2625 14.6712 2 13.3731 2 11.9918C2 10.6104 2.2625 9.31225 2.7875 8.09725C3.3125 6.88242 4.02775 5.825 4.93325 4.925C5.83892 4.025 6.89917 3.3125 8.114 2.7875C9.32883 2.2625 10.6269 2 12.0083 2C13.3896 2 14.6878 2.2625 15.9028 2.7875C17.1176 3.3125 18.175 4.025 19.075 4.925C19.975 5.825 20.6875 6.88333 21.2125 8.1C21.7375 9.31667 22 10.6152 22 11.9955C22 13.376 21.7375 14.6733 21.2125 15.8873C20.6875 17.1013 19.975 18.16 19.075 19.0635C18.175 19.967 17.1167 20.6823 15.9 21.2095C14.6833 21.7365 13.3848 22 12.0045 22ZM12.0083 20.3333C14.3249 20.3333 16.2916 19.5222 17.9083 17.9C19.5249 16.2778 20.3333 14.3084 20.3333 11.9918C20.3333 9.67508 19.526 7.70842 17.9115 6.09175C16.2968 4.47508 14.3263 3.66675 12 3.66675C9.68883 3.66675 7.72217 4.474 6.1 6.0885C4.47783 7.70317 3.66675 9.67367 3.66675 12C3.66675 14.3112 4.47783 16.2778 6.1 17.9C7.72217 19.5222 9.69158 20.3333 12.0083 20.3333Z" fill="#ED7C7C"/>
</svg>
