<svg width="24" height="24" viewBox="0 0 24 24" fill="none" xmlns="http://www.w3.org/2000/svg">
<path d="M1.90486 20.7778C1.39057 20.7778 0.944476 20.5942 0.566571 20.2269C0.188857 19.8595 0 19.4258 0 18.9258V4.85194C0 4.35194 0.188857 3.91824 0.566571 3.55083C0.944476 3.18361 1.39057 3 1.90486 3H9.54286L11.4477 4.85194H20.9523C21.4666 4.85194 21.9127 5.03556 22.2906 5.40278C22.6683 5.77 22.8571 6.20361 22.8571 6.70361V11.5186C22.5587 11.3705 22.2491 11.2701 21.9286 11.2175C21.608 11.1651 21.2826 11.1481 20.9523 11.1667V6.70361H10.6571L8.75229 4.85194H1.90486V18.9258H11.8477L11.8094 18.9631V20.7778H1.90486ZM13.7143 23V19.5833L20.0286 13.4722C20.2 13.3056 20.3905 13.1852 20.6 13.1111C20.8095 13.037 21.019 13 21.2286 13C21.4571 13 21.6762 13.0417 21.8857 13.125C22.0952 13.2083 22.2857 13.3333 22.4571 13.5L23.5143 14.5278C23.6794 14.6944 23.8016 14.8796 23.8809 15.0833C23.9603 15.287 24 15.4907 24 15.6944C24 15.8981 23.9588 16.1065 23.8763 16.3194C23.7936 16.5324 23.6671 16.7222 23.4969 16.8889L17.2286 23H13.7143ZM15.4286 21.3333H16.5143L19.9714 17.9444L19.4571 17.4167L18.9143 16.9167L15.4286 20.2778V21.3333ZM19.4571 17.4167L18.9143 16.9167L19.9714 17.9444L19.4571 17.4167Z" fill="#0B4DB0"/>
</svg>
