<svg width="24" height="24" viewBox="0 0 24 24" fill="none" xmlns="http://www.w3.org/2000/svg">
<g clip-path="url(#clip0_333_598)">
<path d="M4.38 18.54C5.56 17.6934 6.7733 17.0384 8.0199 16.575C9.2667 16.1116 10.5934 15.8799 12 15.8799C13.4066 15.8799 14.7366 16.1116 15.99 16.575C17.2434 17.0384 18.4601 17.6934 19.6401 18.54C20.4601 17.5466 21.0584 16.5099 21.435 15.4299C21.8116 14.3499 21.9999 13.2066 21.9999 12C21.9999 9.18 21.0383 6.8083 19.1151 4.8849C17.1917 2.9617 14.82 2.0001 12 2.0001C9.18 2.0001 6.8083 2.9617 4.8849 4.8849C2.9617 6.8083 2.0001 9.18 2.0001 12C2.0001 13.2066 2.1917 14.3499 2.5749 15.4299C2.9583 16.5099 3.56 17.5466 4.38 18.54ZM11.9964 12.9999C10.8322 12.9999 9.8517 12.6004 9.0549 11.8014C8.2583 11.0022 7.86 10.0205 7.86 8.8563C7.86 7.6921 8.2596 6.7117 9.0588 5.9151C9.8578 5.1183 10.8394 4.7199 12.0036 4.7199C13.1678 4.7199 14.1483 5.1195 14.9451 5.9187C15.7417 6.7179 16.14 7.6996 16.14 8.8638C16.14 10.028 15.7404 11.0084 14.9412 11.805C14.1422 12.6016 13.1606 12.9999 11.9964 12.9999ZM12.0093 24C10.3565 24 8.8001 23.685 7.3401 23.055C5.8801 22.425 4.6067 21.5667 3.5199 20.4801C2.4333 19.3933 1.575 18.1215 0.945 16.6647C0.315 15.2079 0 13.6512 0 11.9946C0 10.3382 0.315 8.7833 0.945 7.3299C1.575 5.8767 2.4333 4.6067 3.5199 3.5199C4.6067 2.4333 5.8785 1.575 7.3353 0.945C8.7921 0.315 10.3488 0 12.0054 0C13.6618 0 15.2167 0.315 16.6701 0.945C18.1233 1.575 19.3933 2.4333 20.4801 3.5199C21.5667 4.6067 22.425 5.8769 23.055 7.3305C23.685 8.7843 24 10.3377 24 11.9907C24 13.6435 23.685 15.1999 23.055 16.6599C22.425 18.1199 21.5667 19.3933 20.4801 20.4801C19.3933 21.5667 18.1231 22.425 16.6695 23.055C15.2157 23.685 13.6623 24 12.0093 24ZM12 21.9999C13.0866 21.9999 14.1366 21.8416 15.15 21.525C16.1634 21.2084 17.1401 20.6867 18.0801 19.9599C17.1401 19.2867 16.1601 18.7717 15.1401 18.4149C14.1201 18.0583 13.0734 17.88 12 17.88C10.9266 17.88 9.8799 18.0583 8.8599 18.4149C7.8399 18.7717 6.8599 19.2867 5.9199 19.9599C6.8599 20.6867 7.8366 21.2084 8.85 21.525C9.8634 21.8416 10.9134 21.9999 12 21.9999ZM12 11.0001C12.6266 11.0001 13.1399 10.8001 13.5399 10.4001C13.9399 10.0001 14.1399 9.4867 14.1399 8.8599C14.1399 8.2333 13.9399 7.72 13.5399 7.32C13.1399 6.92 12.6266 6.72 12 6.72C11.3734 6.72 10.8601 6.92 10.4601 7.32C10.0601 7.72 9.8601 8.2333 9.8601 8.8599C9.8601 9.4867 10.0601 10.0001 10.4601 10.4001C10.8601 10.8001 11.3734 11.0001 12 11.0001Z" fill="#0B4DB0"/>
</g>
<defs>
<clipPath id="clip0_333_598">
<rect width="24" height="24" fill="white"/>
</clipPath>
</defs>
</svg>
