<svg width="24" height="24" viewBox="0 0 24 24" fill="none" xmlns="http://www.w3.org/2000/svg">
<path d="M2.0001 22C1.4601 22 0.9917 21.7934 0.5949 21.3803C0.1983 20.967 0 20.4791 0 19.9166V4.08344C0 3.52094 0.1983 3.03302 0.5949 2.61969C0.9917 2.20656 1.4601 2 2.0001 2H21.9999C22.5399 2 23.0083 2.20656 23.4051 2.61969C23.8017 3.03302 24 3.52094 24 4.08344V19.9166C24 20.4791 23.8017 20.967 23.4051 21.3803C23.0083 21.7934 22.5399 22 21.9999 22H2.0001ZM2.0001 19.9166H21.9999V4.08344H2.0001V19.9166ZM4.74 17H19.2801L14.8401 10.7709L11.0199 16.0625L8.28 12.125L4.74 17Z" fill="#0B4DB0"/>
</svg>
