<svg width="54" height="54" viewBox="0 0 54 54" fill="none" xmlns="http://www.w3.org/2000/svg">
<g clip-path="url(#clip0_312_77)">
<path d="M34.1401 45.7031L28.8875 42.9795L18.9919 11.7368C18.8575 11.3123 18.8054 10.9098 18.8356 10.5294C18.8662 10.1488 18.9689 9.78993 19.1437 9.45283C19.3141 9.12411 19.545 8.83971 19.8362 8.59962C20.1278 8.35965 20.4835 8.17648 20.9036 8.0501L23.2627 7.30211C23.6623 7.1548 24.0504 7.09522 24.4269 7.12338C24.8033 7.15178 25.1641 7.25548 25.5094 7.4345C25.83 7.60073 26.1165 7.83267 26.3689 8.13034C26.6212 8.42825 26.8147 8.7894 26.9495 9.2138L36.8637 40.4506L34.1401 45.7031ZM32.9527 41.9582L33.8734 40.1827L26.2573 16.1298L24.897 16.5509L23.5426 16.9906L31.1772 41.0376L32.9527 41.9582ZM24.897 16.5509L23.5426 16.9906L26.2573 16.1298L24.897 16.5509ZM41.8122 30.9072C42.7925 29.0166 43.2248 27.0766 43.109 25.0871C42.9935 23.0976 42.1137 21.6766 40.4697 20.8241C39.5161 20.3296 38.4908 20.2048 37.3939 20.4495C36.297 20.6943 35.1776 21.3446 34.0355 22.4005L34.9438 25.2652C35.7477 24.3991 36.5332 23.7895 37.3002 23.4362C38.0675 23.0831 38.6977 23.0345 39.1909 23.2902C39.9061 23.661 40.2866 24.471 40.3326 25.7202C40.3782 26.9694 40.0493 28.2722 39.3461 29.6285C39.1713 29.9656 39.1382 30.3161 39.2467 30.68C39.3553 31.0438 39.5864 31.3175 39.94 31.5008C40.2769 31.6755 40.6295 31.7045 40.9978 31.588C41.3659 31.4713 41.6374 31.2443 41.8122 30.9072ZM24.2872 37.731L23.3611 34.8102C22.5361 35.7175 21.8299 36.3604 21.2425 36.7389C20.6551 37.1174 20.1929 37.2193 19.8558 37.0445C19.494 36.8569 19.2747 36.4251 19.1978 35.7491C19.1206 35.073 19.183 33.786 19.3849 31.8881C19.6456 29.3739 19.5975 27.5758 19.2406 26.4936C18.8838 25.4118 18.2082 24.6131 17.2136 24.0974C15.8408 23.3856 14.4852 23.3397 13.1467 23.9599C11.8082 24.58 10.6957 25.7449 9.8092 27.4545C9.25936 28.5149 8.94882 29.5664 8.87757 30.6089C8.80632 31.6515 8.93305 32.5334 9.25776 33.2547C9.39766 33.6088 9.63836 33.8588 9.97986 34.0046C10.3214 34.1504 10.6736 34.1348 11.0366 33.9579C11.3992 33.8017 11.6473 33.5444 11.781 33.186C11.9147 32.8279 11.9281 32.4803 11.8213 32.1433C11.6471 31.594 11.595 31.0507 11.6649 30.5134C11.7351 29.9759 11.9386 29.3826 12.2753 28.7333C12.8421 27.6401 13.4582 26.9348 14.1234 26.6174C14.7887 26.2999 15.3926 26.2818 15.9351 26.5631C16.379 26.7933 16.6531 27.2249 16.7576 27.858C16.8621 28.491 16.8153 29.7731 16.6172 31.7042C16.3214 34.3463 16.3439 36.1885 16.6849 37.2308C17.0258 38.2733 17.6565 39.0332 18.577 39.5106C19.3661 39.9197 20.2553 40.0002 21.2446 39.7518C22.2339 39.5033 23.2481 38.8296 24.2872 37.731Z" fill="#4A8AEB"/>
</g>
<defs>
<clipPath id="clip0_312_77">
<rect width="40" height="40" fill="white" transform="translate(0 35.51) rotate(-62.5918)"/>
</clipPath>
</defs>
</svg>
