<svg width="46" height="46" viewBox="0 0 46 46" fill="none" xmlns="http://www.w3.org/2000/svg">
<path d="M29.599 38.8429L20.9149 26.6765C20.276 26.7976 19.6422 26.8726 19.0135 26.9015C18.3851 26.9303 17.7465 26.8918 17.0975 26.786C14.4091 26.3479 12.277 25.0374 10.7012 22.8544C9.12521 20.6711 8.55561 18.2392 8.99244 15.5587C9.1384 14.663 9.39958 13.8176 9.77598 13.0226C10.1523 12.2277 10.6176 11.4934 11.1718 10.8196L16.1744 17.7702L20.229 14.9975L15.1345 7.91923C15.9451 7.59792 16.7843 7.38218 17.6522 7.27201C18.5199 7.16152 19.3924 7.17776 20.2697 7.32074C22.996 7.76502 25.1579 9.0969 26.7556 11.3164C28.3531 13.5358 28.9296 16.0088 28.4853 18.7354C28.3796 19.384 28.2132 20.0018 27.9861 20.5888C27.759 21.1757 27.4867 21.7529 27.169 22.3203L35.9213 34.413C36.1817 34.7737 36.2761 35.1736 36.2046 35.6125C36.133 36.0517 35.9164 36.4013 35.5549 36.6613L31.8197 39.2048C31.4639 39.4657 31.0699 39.561 30.6375 39.4905C30.2052 39.42 29.859 39.2042 29.599 38.8429ZM31.2086 36.3046L32.9145 35.0772L23.712 22.2914C24.2613 21.7995 24.7079 21.1897 25.0516 20.4622C25.3953 19.735 25.6259 19.0104 25.7435 18.2885C26.0563 16.3694 25.6402 14.62 24.4952 13.0403C23.3499 11.4605 21.8762 10.4721 20.0741 10.0751L23.2551 14.5619C23.4846 14.8807 23.5642 15.2268 23.4938 15.6C23.4237 15.973 23.2292 16.2743 22.9104 16.5038L16.6651 20.8053C16.344 21.0158 15.9975 21.0908 15.6254 21.0302C15.2531 20.9695 14.9599 20.7903 14.7459 20.4925L11.6434 16.2157C11.4662 18.1662 11.95 19.8845 13.0948 21.3705C14.2396 22.8564 15.7228 23.7479 17.5443 24.0447C18.2387 24.1579 18.9786 24.1659 19.7639 24.0687C20.5489 23.9715 21.2658 23.7458 21.9146 23.3916L31.2086 36.3046Z" fill="#4A8AEB"/>
</svg>
