<svg width="54" height="54" viewBox="0 0 54 54" fill="none" xmlns="http://www.w3.org/2000/svg">
<g clip-path="url(#clip0_312_69)">
<path d="M26.3415 28.2166C24.9809 27.5059 24.0717 26.419 23.6138 24.9557C23.156 23.4922 23.2825 22.08 23.9933 20.7192C24.704 19.3586 25.791 18.4494 27.2543 17.9915C28.7178 17.5337 30.13 17.6602 31.4908 18.371C32.8514 19.0817 33.7606 20.1687 34.2185 21.632C34.6762 23.0955 34.5497 24.5077 33.8389 25.8685C33.1282 27.2291 32.0412 28.1383 30.578 28.5962C29.1144 29.0539 27.7023 28.9274 26.3415 28.2166ZM27.627 25.7545C28.3103 26.1114 29.0168 26.1762 29.7467 25.9488C30.4767 25.7212 31.0201 25.2659 31.3768 24.5829C31.7337 23.8997 31.7985 23.1931 31.5711 22.4633C31.3435 21.7333 30.8882 21.1899 30.2052 20.8331C29.522 20.4762 28.8154 20.4115 28.0855 20.6388C27.3555 20.8664 26.8122 21.3217 26.4554 22.0047C26.0985 22.688 26.0338 23.3945 26.2611 24.1244C26.4887 24.8544 26.944 25.3978 27.627 25.7545ZM18.8848 42.4984L9.83331 27.4286L17.5497 12.6559L35.0893 11.4756L44.1407 26.5454L36.4243 41.3182L18.8848 42.4984ZM20.3958 39.6055L28.2013 39.0913C27.6737 38.0219 26.9845 37.0665 26.1338 36.2251C25.2831 35.3837 24.3243 34.6843 23.2575 34.1271C22.1906 33.5698 21.0689 33.1824 19.8923 32.9649C18.7157 32.7474 17.5378 32.7276 16.3587 32.9055L20.3958 39.6055ZM14.7596 30.2369C16.4295 29.9599 18.1001 29.9316 19.7714 30.1518C21.4427 30.372 23.0334 30.8764 24.5434 31.6652C26.0534 32.4539 27.3762 33.4713 28.5117 34.7172C29.6473 35.9631 30.5784 37.3505 31.3051 38.8793L34.6565 38.7025L40.9549 26.6446L33.5846 14.3563L19.2884 15.3273L12.99 27.3852L14.7596 30.2369Z" fill="#4A8AEB"/>
</g>
<defs>
<clipPath id="clip0_312_69">
<rect width="40" height="40" fill="white" transform="translate(18.5194) rotate(27.5799)"/>
</clipPath>
</defs>
</svg>
