<svg width="24" height="24" viewBox="0 0 24 24" fill="none" xmlns="http://www.w3.org/2000/svg">
<path d="M11.1668 19.9083V12.475L4.66675 8.71676V16.15L11.1668 19.9083ZM12.8333 19.9083L19.3333 16.15V8.70001L12.8333 12.4723V19.9083ZM12 11.05L18.4083 7.32501L12 3.61676L5.575 7.32501L12 11.05ZM3.83325 17.6C3.56942 17.4453 3.36458 17.2413 3.21875 16.988C3.07292 16.7348 3 16.4583 3 16.1583V7.84176C3 7.54176 3.07292 7.26518 3.21875 7.01201C3.36458 6.75868 3.56942 6.55468 3.83325 6.40001L11.1668 2.17501C11.4314 2.02501 11.7101 1.95001 12.0027 1.95001C12.2954 1.95001 12.5723 2.02501 12.8333 2.17501L20.1667 6.40001C20.4306 6.55468 20.6354 6.75868 20.7812 7.01201C20.9271 7.26518 21 7.54176 21 7.84176V16.1583C21 16.4583 20.9271 16.7348 20.7812 16.988C20.6354 17.2413 20.4306 17.4453 20.1667 17.6L12.8333 21.825C12.5686 21.975 12.2899 22.05 11.9973 22.05C11.7046 22.05 11.4278 21.975 11.1668 21.825L3.83325 17.6Z" fill="#1D2E6C"/>
</svg>
