<svg width="24" height="24" viewBox="0 0 24 24" fill="none" xmlns="http://www.w3.org/2000/svg">
<path d="M4.66675 21C4.21675 21 3.82642 20.8348 3.49575 20.5043C3.16525 20.1736 3 19.7833 3 19.3333V4.66678C3 4.21678 3.16525 3.82644 3.49575 3.49578C3.82642 3.16528 4.21675 3.00003 4.66675 3.00003H9.51675C9.57225 2.38886 9.83892 1.85828 10.3168 1.40828C10.7944 0.958276 11.3555 0.733276 12 0.733276C12.6445 0.733276 13.2056 0.958276 13.6833 1.40828C14.1611 1.85828 14.4278 2.38886 14.4833 3.00003H19.3333C19.7833 3.00003 20.1736 3.16528 20.5042 3.49578C20.8347 3.82644 21 4.21678 21 4.66678V19.3333C21 19.7833 20.8347 20.1736 20.5042 20.5043C20.1736 20.8348 19.7833 21 19.3333 21H4.66675ZM12 3.71678C12.2167 3.71678 12.3958 3.64594 12.5375 3.50428C12.6792 3.36261 12.75 3.18344 12.75 2.96678C12.75 2.75011 12.6792 2.57094 12.5375 2.42928C12.3958 2.28761 12.2167 2.21678 12 2.21678C11.7833 2.21678 11.6042 2.28761 11.4625 2.42928C11.3208 2.57094 11.25 2.75011 11.25 2.96678C11.25 3.18344 11.3208 3.36261 11.4625 3.50428C11.6042 3.64594 11.7833 3.71678 12 3.71678ZM4.66675 18.3333C5.63342 17.4166 6.737 16.6819 7.9775 16.1293C9.218 15.5764 10.5582 15.3 11.9983 15.3C13.4382 15.3 14.7791 15.5764 16.0208 16.1293C17.2624 16.6819 18.3666 17.4166 19.3333 18.3333V4.66678H4.66675V18.3333ZM12.0332 13.3168C12.9999 13.3168 13.8194 12.9806 14.4917 12.3083C15.1639 11.6361 15.5 10.8167 15.5 9.85003C15.5 8.88336 15.1639 8.06394 14.4917 7.39178C13.8194 6.71944 12.9999 6.38328 12.0332 6.38328C11.0666 6.38328 10.2472 6.71944 9.575 7.39178C8.90283 8.06394 8.56675 8.88336 8.56675 9.85003C8.56675 10.8167 8.90283 11.6361 9.575 12.3083C10.2472 12.9806 11.0666 13.3168 12.0332 13.3168ZM6.25 19.3333H17.75V19.1C16.9167 18.3945 16.0139 17.8626 15.0417 17.5043C14.0694 17.1459 13.0555 16.9668 12 16.9668C10.9445 16.9668 9.93058 17.1459 8.95825 17.5043C7.98608 17.8626 7.08333 18.3945 6.25 19.1V19.3333ZM12.0332 11.65C11.5332 11.65 11.1082 11.475 10.7582 11.125C10.4082 10.775 10.2332 10.35 10.2332 9.85003C10.2332 9.35003 10.4082 8.92503 10.7582 8.57503C11.1082 8.22503 11.5332 8.05003 12.0332 8.05003C12.5332 8.05003 12.9583 8.22503 13.3083 8.57503C13.6583 8.92503 13.8333 9.35003 13.8333 9.85003C13.8333 10.35 13.6583 10.775 13.3083 11.125C12.9583 11.475 12.5332 11.65 12.0332 11.65Z" fill="#1D2E6C"/>
</svg>
