<svg width="24" height="24" viewBox="0 0 24 24" fill="none" xmlns="http://www.w3.org/2000/svg">
<path d="M17.4667 20.7668L11.15 14.4C10.7833 14.5333 10.4152 14.6389 10.0457 14.7168C9.67639 14.7944 9.29447 14.8333 8.89997 14.8333C7.26564 14.8333 5.87656 14.2629 4.73272 13.1223C3.58872 11.9814 3.01672 10.5963 3.01672 8.96675C3.01672 8.42225 3.08981 7.89642 3.23597 7.38925C3.38214 6.88225 3.58681 6.4025 3.84997 5.95L7.48322 9.58325L9.61672 7.55L5.91672 3.85C6.36572 3.5815 6.84189 3.37275 7.34522 3.22375C7.84839 3.07458 8.36664 3 8.89997 3C10.5573 3 11.9661 3.58008 13.1265 4.74025C14.2866 5.90042 14.8667 7.30925 14.8667 8.96675C14.8667 9.36108 14.8278 9.743 14.75 10.1125C14.6721 10.482 14.5666 10.8501 14.4332 11.2168L20.7832 17.5332C20.9722 17.7218 21.0667 17.9494 21.0667 18.2163C21.0667 18.4833 20.9722 18.7112 20.7832 18.9L18.8167 20.7668C18.6312 20.9556 18.4071 21.05 18.1442 21.05C17.8814 21.05 17.6556 20.9556 17.4667 20.7668ZM18.175 19.1083L19.0667 18.2168L12.3832 11.5333C12.6611 11.1889 12.8666 10.7848 13 10.3208C13.1333 9.85692 13.2 9.40558 13.2 8.96675C13.2 7.80008 12.7847 6.80425 11.9542 5.97925C11.1236 5.15425 10.1555 4.71117 9.04997 4.65L11.3667 7C11.5334 7.16667 11.6139 7.36392 11.6082 7.59175C11.6027 7.81942 11.5166 8.01658 11.35 8.18325L8.06672 11.3333C7.89689 11.4889 7.69889 11.5668 7.47272 11.5668C7.24639 11.5668 7.05547 11.4889 6.89997 11.3333L4.64997 9.1C4.73331 10.2722 5.18564 11.243 6.00697 12.0125C6.82831 12.782 7.79264 13.1668 8.89997 13.1668C9.32214 13.1668 9.76106 13.1001 10.2167 12.9668C10.6722 12.8334 11.075 12.6306 11.425 12.3583L18.175 19.1083Z" fill="#1D2E6C"/>
</svg>
