<svg width="24" height="24" viewBox="0 0 24 24" fill="none" xmlns="http://www.w3.org/2000/svg">
<path d="M9 2.66675V1H15V2.66675H9ZM11.1668 13.7832H12.8333V7.95H11.1668V13.7832ZM12 21.9832C10.7667 21.9832 9.60417 21.7457 8.5125 21.2708C7.42083 20.7957 6.46667 20.1499 5.65 19.3333C4.83333 18.5166 4.1875 17.5624 3.7125 16.4707C3.2375 15.3791 3 14.2166 3 12.9832C3 11.7499 3.2375 10.5874 3.7125 9.49575C4.1875 8.40408 4.83333 7.44992 5.65 6.63325C6.46667 5.81658 7.42083 5.17075 8.5125 4.69575C9.60417 4.22075 10.7667 3.98325 12 3.98325C13.0888 3.98325 14.1194 4.16383 15.0918 4.525C16.0639 4.88617 16.9444 5.3945 17.7333 6.05L19.05 4.73325L20.2167 5.9L18.9 7.21675C19.5112 7.93892 20.0139 8.775 20.4083 9.725C20.8028 10.675 21 11.7611 21 12.9832C21 14.2166 20.7625 15.3791 20.2875 16.4707C19.8125 17.5624 19.1667 18.5166 18.35 19.3333C17.5333 20.1499 16.5792 20.7957 15.4875 21.2708C14.3958 21.7457 13.2333 21.9832 12 21.9832ZM12 20.3167C14.0333 20.3167 15.7639 19.6028 17.1917 18.175C18.6194 16.7472 19.3333 15.0166 19.3333 12.9832C19.3333 10.9499 18.6194 9.21942 17.1917 7.79175C15.7639 6.36392 14.0333 5.65 12 5.65C9.96667 5.65 8.23608 6.36392 6.80825 7.79175C5.38058 9.21942 4.66675 10.9499 4.66675 12.9832C4.66675 15.0166 5.38058 16.7472 6.80825 18.175C8.23608 19.6028 9.96667 20.3167 12 20.3167Z" fill="#1D2E6C"/>
</svg>
