<svg width="24" height="24" viewBox="0 0 24 24" fill="none" xmlns="http://www.w3.org/2000/svg">
<path d="M11.9979 15.25C11.0993 15.25 10.3333 14.9343 9.69994 14.303C9.06661 13.6717 8.74994 12.905 8.74994 12.003C8.74994 11.101 9.06561 10.3361 9.69694 9.70825C10.3283 9.08058 11.0949 8.76675 11.9969 8.76675C12.8989 8.76675 13.6639 9.08125 14.2917 9.71025C14.9194 10.3394 15.2332 11.1033 15.2332 12.002C15.2332 12.9007 14.9187 13.6667 14.2897 14.3C13.6605 14.9333 12.8966 15.25 11.9979 15.25ZM11.9999 22C10.6166 22 9.31661 21.7375 8.09994 21.2125C6.88327 20.6875 5.82494 19.975 4.92494 19.075C4.02494 18.175 3.31244 17.1167 2.78744 15.9C2.26244 14.6833 1.99994 13.3833 1.99994 12C1.99994 10.6167 2.26244 9.31667 2.78744 8.1C3.31244 6.88333 4.02494 5.825 4.92494 4.925C5.82494 4.025 6.88327 3.3125 8.09994 2.7875C9.31661 2.2625 10.6166 2 11.9999 2C13.3833 2 14.6833 2.2625 15.8999 2.7875C17.1166 3.3125 18.1749 4.025 19.0749 4.925C19.9749 5.825 20.6874 6.88333 21.2124 8.1C21.7374 9.31667 21.9999 10.6167 21.9999 12C21.9999 13.3833 21.7374 14.6833 21.2124 15.9C20.6874 17.1167 19.9749 18.175 19.0749 19.075C18.1749 19.975 17.1166 20.6875 15.8999 21.2125C14.6833 21.7375 13.3833 22 11.9999 22ZM11.9919 20.3333C14.3031 20.3333 16.2711 19.5236 17.8959 17.9043C19.5208 16.2848 20.3332 14.3193 20.3332 12.008C20.3332 9.69683 19.5208 7.72883 17.8959 6.104C16.2711 4.47917 14.3031 3.66675 11.9919 3.66675C9.68061 3.66675 7.71519 4.47917 6.09569 6.104C4.47636 7.72883 3.66669 9.69683 3.66669 12.008C3.66669 14.3193 4.47636 16.2848 6.09569 17.9043C7.71519 19.5236 9.68061 20.3333 11.9919 20.3333ZM12.0009 16.9168C13.3614 16.9168 14.518 16.4373 15.4707 15.4783C16.4235 14.5194 16.8999 13.3597 16.8999 11.999C16.8999 10.6385 16.4222 9.48192 15.4667 8.52925C14.5112 7.57642 13.3556 7.1 11.9999 7.1C10.6396 7.1 9.48011 7.57775 8.52144 8.53325C7.56261 9.48875 7.08319 10.6443 7.08319 12C7.08319 13.3603 7.56269 14.5198 8.52169 15.4785C9.48052 16.4373 10.6403 16.9168 12.0009 16.9168Z" fill="#1D2E6C"/>
</svg>
