<svg width="24" height="24" viewBox="0 0 24 24" fill="none" xmlns="http://www.w3.org/2000/svg">
<path d="M12 22C10.5945 22 9.28342 21.7431 8.06675 21.2293C6.85008 20.7153 5.79175 20.0083 4.89175 19.1083C3.99175 18.2083 3.28475 17.1499 2.77075 15.9333C2.25692 14.7166 2 13.4055 2 12C2 10.6055 2.25692 9.29992 2.77075 8.08325C3.28475 6.86658 3.99175 5.80825 4.89175 4.90825C5.79175 4.00825 6.85008 3.29858 8.06675 2.77925C9.28342 2.25975 10.5945 2 12 2C13.1945 2 14.3139 2.18608 15.3583 2.55825C16.4028 2.93058 17.35 3.4445 18.2 4.1L17 5.30825C16.3 4.78608 15.5306 4.38192 14.6917 4.09575C13.8527 3.80975 12.9555 3.66675 12 3.66675C9.65 3.66675 7.67358 4.46808 6.07075 6.07075C4.46808 7.67358 3.66675 9.65 3.66675 12C3.66675 14.35 4.46808 16.3264 6.07075 17.9293C7.67358 19.5319 9.65 20.3333 12 20.3333C14.35 20.3333 16.3264 19.5319 17.9292 17.9293C19.5319 16.3264 20.3333 14.35 20.3333 12C20.3333 11.5667 20.3027 11.1417 20.2418 10.725C20.1806 10.3083 20.0889 9.90275 19.9667 9.50825L21.275 8.2C21.5138 8.78883 21.6944 9.39992 21.8167 10.0333C21.9389 10.6666 22 11.3222 22 12C22 13.4055 21.7403 14.7166 21.2208 15.9333C20.7014 17.1499 19.9918 18.2083 19.0917 19.1083C18.1917 20.0083 17.1334 20.7153 15.9167 21.2293C14.7001 21.7431 13.3945 22 12 22ZM10.55 16.5668L6.38325 12.3833L7.6 11.1667L10.55 14.1168L20.7833 3.875L22.0168 5.09175L10.55 16.5668Z" fill="#4DDE5E"/>
</svg>
