<svg width="24" height="24" viewBox="0 0 24 24" fill="none" xmlns="http://www.w3.org/2000/svg">
<g clip-path="url(#clip0_322_626)">
<path d="M7.40012 17.55H9.06662V12.4668H7.40012V17.55ZM15.6001 17.55H17.2666V7.21675H15.6001V17.55ZM11.5001 17.55H13.1666V14.5832H11.5001V17.55ZM11.5001 12.4668H13.1666V10.8H11.5001V12.4668ZM5.00012 21.5C4.55012 21.5 4.15979 21.3347 3.82912 21.0042C3.49862 20.6736 3.33337 20.2833 3.33337 19.8333V5.16675C3.33337 4.71675 3.49862 4.32642 3.82912 3.99575C4.15979 3.66525 4.55012 3.5 5.00012 3.5H19.6666C20.1166 3.5 20.507 3.66525 20.8376 3.99575C21.1681 4.32642 21.3334 4.71675 21.3334 5.16675V19.8333C21.3334 20.2833 21.1681 20.6736 20.8376 21.0042C20.507 21.3347 20.1166 21.5 19.6666 21.5H5.00012ZM5.00012 19.8333H19.6666V5.16675H5.00012V19.8333Z" fill="#5C3F0F"/>
</g>
<defs>
<clipPath id="clip0_322_626">
<rect width="24" height="24" fill="white"/>
</clipPath>
</defs>
</svg>
