<svg width="24" height="24" viewBox="0 0 24 24" fill="none" xmlns="http://www.w3.org/2000/svg">
<path d="M12 11.9832C10.9 11.9832 9.98608 11.6193 9.25825 10.8917C8.53058 10.1638 8.16675 9.2499 8.16675 8.1499C8.16675 7.0499 8.53058 6.13598 9.25825 5.40815C9.98608 4.68048 10.9 4.31665 12 4.31665C13.1 4.31665 14.0139 4.68048 14.7417 5.40815C15.4694 6.13598 15.8333 7.0499 15.8333 8.1499C15.8333 9.2499 15.4694 10.1638 14.7417 10.8917C14.0139 11.6193 13.1 11.9832 12 11.9832ZM4 19.9999V17.4999C4 16.8887 4.15417 16.354 4.4625 15.8957C4.77083 15.4373 5.17225 15.0887 5.66675 14.8499C6.75558 14.3444 7.81942 13.9652 8.85825 13.7124C9.89725 13.4596 10.9445 13.3332 12 13.3332C13.0555 13.3332 14.0999 13.4623 15.1333 13.7207C16.1666 13.979 17.2273 14.3565 18.3152 14.8532C18.8243 15.0935 19.2323 15.4419 19.5393 15.8984C19.8464 16.3549 20 16.8887 20 17.4999V19.9999H4ZM5.66675 18.3332H18.3333V17.4999C18.3333 17.2611 18.2653 17.0361 18.1292 16.8249C17.9931 16.6137 17.8222 16.4554 17.6167 16.3499C16.6056 15.8554 15.6528 15.5068 14.7583 15.3042C13.8639 15.1013 12.9445 14.9999 12 14.9999C11.0555 14.9999 10.1305 15.1013 9.225 15.3042C8.3195 15.5068 7.36675 15.8554 6.36675 16.3499C6.16108 16.4554 5.993 16.6137 5.8625 16.8249C5.732 17.0361 5.66675 17.2611 5.66675 17.4999V18.3332ZM12 10.3167C12.6167 10.3167 13.1319 10.1097 13.5458 9.69565C13.9598 9.28182 14.1667 8.76657 14.1667 8.1499C14.1667 7.53323 13.9598 7.01798 13.5458 6.60415C13.1319 6.19015 12.6167 5.98315 12 5.98315C11.3833 5.98315 10.8681 6.19015 10.4543 6.60415C10.0403 7.01798 9.83325 7.53323 9.83325 8.1499C9.83325 8.76657 10.0403 9.28182 10.4543 9.69565C10.8681 10.1097 11.3833 10.3167 12 10.3167Z" fill="#5C3F0F"/>
</svg>
