<svg width="40" height="40" viewBox="0 0 40 40" fill="none" xmlns="http://www.w3.org/2000/svg">
<path d="M20 28.2249C21.6667 28.2249 23.1939 27.7686 24.5814 26.8561C25.9689 25.9436 26.9751 24.7166 27.6001 23.1751H12.3999C13.0416 24.7166 14.0521 25.9436 15.4314 26.8561C16.8104 27.7686 18.3333 28.2249 20 28.2249ZM13.4499 18.1749L15.125 16.5249L16.775 18.1749L18.2 16.7499L15.125 13.6501L12.0249 16.7499L13.4499 18.1749ZM23.2501 18.1749L24.9001 16.5249L26.5749 18.1749L27.9999 16.7499L24.9001 13.6501L21.8251 16.7499L23.2501 18.1749ZM20 35C17.925 35 15.975 34.6063 14.15 33.8188C12.325 33.0313 10.7375 31.9625 9.3875 30.6125C8.0375 29.2625 6.96875 27.675 6.18125 25.85C5.39375 24.025 5 22.075 5 20C5 17.925 5.39375 15.975 6.18125 14.15C6.96875 12.325 8.0375 10.7375 9.3875 9.3875C10.7375 8.0375 12.325 6.96875 14.15 6.18125C15.975 5.39375 17.925 5 20 5C22.075 5 24.025 5.39375 25.85 6.18125C27.675 6.96875 29.2625 8.0375 30.6125 9.3875C31.9625 10.7375 33.0313 12.325 33.8188 14.15C34.6063 15.975 35 17.925 35 20C35 22.075 34.6063 24.025 33.8188 25.85C33.0313 27.675 31.9625 29.2625 30.6125 30.6125C29.2625 31.9625 27.675 33.0313 25.85 33.8188C24.025 34.6063 22.075 35 20 35ZM20 32.4999C23.4895 32.4999 26.4453 31.289 28.8673 28.8673C31.289 26.4453 32.4999 23.4895 32.4999 20C32.4999 16.5105 31.289 13.5547 28.8673 11.1327C26.4453 8.711 23.4895 7.50012 20 7.50012C16.5105 7.50012 13.5548 8.711 11.1328 11.1327C8.711 13.5547 7.50012 16.5105 7.50012 20C7.50012 23.4895 8.711 26.4453 11.1328 28.8673C13.5548 31.289 16.5105 32.4999 20 32.4999Z" fill="#A12AE6"/>
</svg>
