<svg width="40" height="40" viewBox="0 0 40 40" fill="none" xmlns="http://www.w3.org/2000/svg">
<path d="M9.41665 29.083C11.0555 27.9072 12.7407 26.9975 14.4721 26.3538C16.2037 25.7102 18.0464 25.3884 20 25.3884C21.9536 25.3884 23.8008 25.7102 25.5416 26.3538C27.2825 26.9975 28.9723 27.9072 30.6112 29.083C31.7501 27.7033 32.5811 26.2634 33.1042 24.7634C33.6272 23.2634 33.8887 21.6755 33.8887 19.9997C33.8887 16.083 32.5532 12.789 29.8821 10.1176C27.2107 7.44648 23.9166 6.11092 20 6.11092C16.0833 6.11092 12.7893 7.44648 10.1179 10.1176C7.44679 12.789 6.11123 16.083 6.11123 19.9997C6.11123 21.6755 6.37734 23.2634 6.90956 24.7634C7.44206 26.2634 8.27776 27.7033 9.41665 29.083ZM19.995 21.3884C18.378 21.3884 17.0162 20.8336 15.9096 19.7238C14.8032 18.6138 14.25 17.2504 14.25 15.6334C14.25 14.0165 14.805 12.6548 15.915 11.5484C17.0247 10.4418 18.388 9.88843 20.005 9.88843C21.6219 9.88843 22.9837 10.4434 24.0904 11.5534C25.1968 12.6634 25.75 14.0269 25.75 15.6438C25.75 17.2608 25.195 18.6225 24.085 19.7288C22.9753 20.8352 21.6119 21.3884 19.995 21.3884ZM20.0129 36.6663C17.7173 36.6663 15.5557 36.2288 13.5279 35.3538C11.5001 34.4788 9.73151 33.2868 8.22206 31.7776C6.7129 30.2681 5.52081 28.5018 4.64581 26.4784C3.77081 24.4551 3.33331 22.293 3.33331 19.9922C3.33331 17.6916 3.77081 15.532 4.64581 13.5134C5.52081 11.4951 6.7129 9.7312 8.22206 8.22176C9.73151 6.71259 11.4979 5.52051 13.5212 4.64551C15.5446 3.77051 17.7066 3.33301 20.0075 3.33301C22.308 3.33301 24.4676 3.77051 26.4862 4.64551C28.5046 5.52051 30.2685 6.71259 31.7779 8.22176C33.2871 9.7312 34.4792 11.4954 35.3541 13.5143C36.2291 15.5334 36.6666 17.6909 36.6666 19.9868C36.6666 22.2823 36.2291 24.444 35.3541 26.4718C34.4792 28.4995 33.2871 30.2681 31.7779 31.7776C30.2685 33.2868 28.5043 34.4788 26.4854 35.3538C24.4662 36.2288 22.3087 36.6663 20.0129 36.6663ZM20 33.8884C21.5091 33.8884 22.9675 33.6686 24.375 33.2288C25.7825 32.7891 27.139 32.0645 28.4446 31.0551C27.139 30.1201 25.7779 29.4048 24.3612 28.9093C22.9446 28.414 21.4908 28.1663 20 28.1663C18.5091 28.1663 17.0554 28.414 15.6387 28.9093C14.2221 29.4048 12.861 30.1201 11.5554 31.0551C12.861 32.0645 14.2175 32.7891 15.625 33.2288C17.0325 33.6686 18.4908 33.8884 20 33.8884ZM20 18.6109C20.8703 18.6109 21.5832 18.3331 22.1387 17.7776C22.6943 17.222 22.9721 16.509 22.9721 15.6384C22.9721 14.7681 22.6943 14.0552 22.1387 13.4997C21.5832 12.9441 20.8703 12.6663 20 12.6663C19.1297 12.6663 18.4168 12.9441 17.8612 13.4997C17.3057 14.0552 17.0279 14.7681 17.0279 15.6384C17.0279 16.509 17.3057 17.222 17.8612 17.7776C18.4168 18.3331 19.1297 18.6109 20 18.6109Z" fill="#17971C"/>
</svg>
