<svg width="451" height="87" viewBox="0 0 451 87" fill="none" xmlns="http://www.w3.org/2000/svg">
<path d="M3.60491 26.0051V18.9726H19.2065C20.3096 18.9726 21.334 18.7165 22.2795 18.2043C23.2251 17.6527 23.9539 16.9239 24.4661 16.0177C25.0177 15.1116 25.2935 14.1069 25.2935 13.0038C25.2935 11.9006 25.0177 10.896 24.4661 9.98984C23.9539 9.08369 23.2251 8.37453 22.2795 7.86235C21.3734 7.31078 20.349 7.03499 19.2065 7.03499H3.60491V0.00245949H19.2065C21.728 0.00245949 23.9933 0.573731 26.0026 1.71627C28.0119 2.85881 29.6076 4.41503 30.7895 6.38493C31.9714 8.35482 32.5624 10.5611 32.5624 13.0038C32.5624 15.4071 31.9714 17.5936 30.7895 19.5635C29.6076 21.5334 28.0119 23.1094 26.0026 24.2913C23.9933 25.4338 21.728 26.0051 19.2065 26.0051H3.60491ZM0 85.693V0.00245949H7.44621V85.693H0ZM25.589 85.693L10.0465 22.5775H18.6746L34.2171 85.693H25.589Z" fill="#1D2E6C"/>
<path d="M51.3137 86.6385C48.477 86.5597 45.8964 85.8506 43.572 84.511C41.2869 83.1321 39.4549 81.3001 38.076 79.015C36.7364 76.73 36.0667 29.9055 36.0667 27.187C36.0667 24.2716 36.6773 21.6713 37.8987 19.3863C39.1594 17.1012 40.8732 15.3086 43.0401 14.0084C45.207 12.7083 47.6497 12.0582 50.3681 12.0582C53.323 12.0582 55.9035 12.7083 58.1098 14.0084C60.3555 15.3086 62.1087 17.1012 63.3694 19.3863C64.6302 21.6319 65.2605 24.2125 65.2605 27.1279C65.2605 27.4825 65.2408 27.8568 65.2014 28.2508C65.162 28.6448 65.1029 28.9993 65.0241 29.3145H57.9325C58.0901 28.96 58.1886 28.5266 58.228 28.0144C58.3068 27.4628 58.3462 26.8916 58.3462 26.3006C58.3462 24.8429 58.0704 23.523 57.5188 22.3411C56.9673 21.1592 56.1399 20.253 55.0368 19.6226C53.9336 18.9529 52.535 18.618 50.8409 18.618C49.265 18.618 47.9057 18.9726 46.7632 19.6817C45.6207 20.3515 44.7539 21.2971 44.1629 22.5184C43.572 23.7397 43.2765 25.1384 43.2765 26.7143C43.2765 28.4084 43.6508 74.2676 44.3993 75.6465C45.1873 76.986 46.2313 78.0695 47.5315 78.8968C48.871 79.6848 50.3484 80.0788 51.9637 80.0788C52.8305 80.0788 53.7366 79.9409 54.6822 79.6651C55.6277 79.3499 56.5142 78.9559 57.3415 78.4832C58.1689 77.971 58.819 77.4194 59.2917 76.8284L63.724 81.3789C62.9361 82.3639 61.8526 83.27 60.4737 84.0974C59.0948 84.8853 57.5976 85.5157 55.9823 85.9885C54.367 86.4613 52.8108 86.6779 51.3137 86.6385ZM39.1988 29.3145V24.2913H62.8376V29.3145H39.1988Z" fill="#1D2E6C"/>
<path d="M81.9651 86.6385C79.4042 86.6385 77.0995 86.1461 75.0508 85.1611C73.0021 84.1762 71.3671 82.8563 70.1457 81.2016C68.9244 79.5469 68.3137 33.3725 68.3137 31.3238H75.6417C75.6417 32.2694 75.9175 77.4785 76.4691 78.3059C77.0601 79.0938 77.848 79.7242 78.833 80.197C79.8573 80.6303 80.9802 80.847 82.2015 80.847C83.1864 80.847 84.0729 80.6894 84.8609 80.3743C85.6882 80.0591 86.3383 79.6257 86.8111 79.0741C87.2838 78.5226 87.5202 33.5892 87.5202 32.9194C87.5202 32.2103 87.2641 31.639 86.752 31.2056C86.2792 30.7723 85.6291 30.4177 84.8018 30.1419C83.9744 29.8661 83.0682 29.61 82.0833 29.3736C80.8226 29.0584 79.483 28.7433 78.0647 28.4281C76.6464 28.0735 75.3069 27.6401 74.0461 27.1279C72.8248 26.5764 71.8201 25.8278 71.0322 24.8823C70.2442 23.9367 69.8502 22.7154 69.8502 21.2183C69.8502 19.5241 70.3427 17.9876 71.3277 16.6087C72.352 15.1904 73.7112 14.0872 75.4053 13.2993C77.1389 12.4719 79.0694 12.0582 81.1968 12.0582C83.4031 12.0582 85.4124 12.4719 87.2247 13.2993C89.037 14.0872 90.4751 15.1707 91.5388 16.5496C92.6419 17.8891 93.1935 19.4059 93.1935 21.1001H85.8655C85.8655 20.5091 85.6488 19.9575 85.2154 19.4453C84.8215 18.9332 84.2699 18.5392 83.5607 18.2634C82.8516 17.9876 82.0636 17.8497 81.1968 17.8497C80.4089 17.8497 79.6997 17.9679 79.0694 18.2043C78.439 18.4407 77.9268 18.7756 77.5328 19.209C77.1783 19.6029 77.001 20.056 77.001 20.5682C77.001 21.0804 77.1783 21.5137 77.5328 21.8683C77.9268 22.1835 78.439 22.4593 79.0694 22.6957C79.6997 22.8927 80.4286 23.0897 81.2559 23.2866C82.0833 23.4442 82.9501 23.6018 83.8562 23.7594C85.0775 23.9958 86.3186 24.311 87.5793 24.705C88.8794 25.0596 90.0614 25.552 91.1251 26.1824C92.1889 26.7734 93.0359 27.581 93.6663 28.6054C94.3361 29.5903 94.6709 30.8707 94.6709 32.4467C94.6709 34.259 94.0997 80.2561 92.9571 81.7926C91.854 83.2897 90.3372 84.4716 88.4067 85.3384C86.4762 86.2052 84.329 86.6385 81.9651 86.6385Z" fill="#1D2E6C"/>
<path d="M128.725 13.0038V85.693H121.278V79.015L122.519 80.4334C121.456 82.3245 120.018 83.8413 118.205 84.9838C116.393 86.087 114.384 86.6385 112.177 86.6385C109.853 86.6385 107.745 86.0279 105.854 84.8065C104.002 83.5458 102.525 81.8714 101.422 79.7833C100.319 77.6558 99.7671 30.9692 99.7671 28.369V13.0038H107.213V28.369C107.213 29.6691 107.509 75.1737 108.1 76.2375C108.73 77.3012 109.577 78.1483 110.641 78.7786C111.744 79.409 112.946 79.7242 114.246 79.7242C115.585 79.7242 116.767 79.3893 117.792 78.7195C118.855 78.0104 119.702 77.0845 120.333 75.942C120.963 74.7995 121.278 29.1963 121.278 27.778V13.0038H128.725Z" fill="#1D2E6C"/>
<path d="M136.418 85.693V13.0038H143.865V19.1499L142.564 17.6724C143.549 15.8995 144.83 14.5206 146.406 13.5357C147.982 12.5507 149.735 12.0582 151.665 12.0582C154.029 12.0582 156.157 12.7477 158.048 14.1266C159.939 15.4662 161.357 17.1997 162.303 19.3272L160.116 18.9726C161.062 16.8451 162.46 15.1707 164.312 13.9493C166.203 12.6886 168.35 12.0582 170.754 12.0582C173.078 12.0582 175.206 12.6492 177.136 13.8311C179.067 15.0131 180.603 16.6087 181.746 18.618C182.888 20.6273 183.459 22.8533 183.459 25.2959V85.693H176.013V25.0005C176.013 23.8579 175.757 22.8533 175.245 21.9865C174.733 21.0804 174.004 20.3712 173.058 19.859C172.152 19.3075 171.128 19.0317 169.985 19.0317C168.843 19.0317 167.779 19.3272 166.794 19.9181C165.849 20.4697 165.08 21.2183 164.489 22.1638C163.938 23.1094 163.662 24.1534 163.662 25.2959V85.693H156.216V25.0005C156.216 23.8579 155.96 22.8533 155.447 21.9865C154.935 21.0804 154.206 20.3712 153.261 19.859C152.355 19.3075 151.33 19.0317 150.188 19.0317C149.045 19.0317 147.982 19.3272 146.997 19.9181C146.051 20.5091 145.283 21.3168 144.692 22.3411C144.14 23.3654 143.865 24.5474 143.865 25.8869V85.693H136.418Z" fill="#1D2E6C"/>
<path d="M204.365 86.6385C201.529 86.5597 198.948 85.8506 196.624 84.511C194.339 83.1321 192.507 81.3001 191.128 79.015C189.788 76.73 189.118 29.9055 189.118 27.187C189.118 24.2716 189.729 21.6713 190.95 19.3863C192.211 17.1012 193.925 15.3086 196.092 14.0084C198.259 12.7083 200.701 12.0582 203.42 12.0582C206.375 12.0582 208.955 12.7083 211.162 14.0084C213.407 15.3086 215.16 17.1012 216.421 19.3863C217.682 21.6319 218.312 24.2125 218.312 27.1279C218.312 27.4825 218.293 27.8568 218.253 28.2508C218.214 28.6448 218.155 28.9994 218.076 29.3145H210.984C211.142 28.96 211.24 28.5266 211.28 28.0144C211.359 27.4628 211.398 26.8916 211.398 26.3006C211.398 24.8429 211.122 23.523 210.571 22.3411C210.019 21.1592 209.192 20.253 208.089 19.6226C206.985 18.9529 205.587 18.618 203.893 18.618C202.317 18.618 200.957 18.9726 199.815 19.6817C198.672 20.3515 197.806 21.2971 197.215 22.5184C196.624 23.7397 196.328 25.1384 196.328 26.7143C196.328 28.4084 196.703 74.2676 197.451 75.6465C198.239 76.986 199.283 78.0695 200.583 78.8968C201.923 79.6848 203.4 80.0788 205.015 80.0788C205.882 80.0788 206.788 79.9409 207.734 79.6651C208.679 79.3499 209.566 78.9559 210.393 78.4832C211.221 77.971 211.871 77.4194 212.344 76.8284L216.776 81.3789C215.988 82.3639 214.904 83.27 213.525 84.0974C212.146 84.8853 210.649 85.5157 209.034 85.9885C207.419 86.4613 205.863 86.6779 204.365 86.6385ZM192.251 29.3145V24.2913H215.889V29.3145H192.251Z" fill="#1D2E6C"/>
<path d="M253.592 85.693V79.0741H270.375C271.518 79.0741 272.522 78.818 273.389 78.3059C274.295 77.7543 275.005 32.7225 275.517 31.8557C276.068 30.9495 276.344 29.9449 276.344 28.8418C276.344 27.7386 276.068 26.7537 275.517 25.8869C275.005 24.9808 274.295 24.2716 273.389 23.7594C272.522 23.2473 271.518 22.9912 270.375 22.9912H253.592V16.3723H270.612C273.054 16.3329 275.241 16.8648 277.171 17.9679C279.102 19.0711 280.619 20.5682 281.722 22.4593C282.864 24.3504 283.436 26.4976 283.436 28.9009C283.436 31.2253 282.864 77.6558 281.722 79.5469C280.619 81.438 279.102 82.9351 277.171 84.0383C275.241 85.1414 273.054 85.693 270.612 85.693H253.592ZM250.873 85.693V0.00246231H258.319V85.693H250.873ZM254.478 21.1001V16.3723H269.193C270.099 16.3723 270.907 16.1556 271.616 15.7222C272.365 15.2495 272.936 14.6388 273.33 13.8902C273.763 13.1023 273.98 12.2355 273.98 11.29C273.98 10.3838 273.763 9.59586 273.33 8.9261C272.897 8.21693 272.325 7.66536 271.616 7.27138C270.907 6.83801 270.099 6.62132 269.193 6.62132H254.478V0.00246231H269.784C271.951 -0.0369351 273.882 0.396443 275.576 1.3026C277.27 2.20875 278.609 3.44978 279.594 5.0257C280.579 6.60162 281.072 8.37452 281.072 10.3444C281.072 12.3931 280.402 14.2251 279.063 15.8404C277.723 17.4558 275.891 18.7362 273.567 19.6817C271.242 20.6273 268.602 21.1001 265.648 21.1001H254.478Z" fill="#1D2E6C"/>
<path d="M318.423 13.0038V85.693H310.977V79.015L312.218 80.4334C311.154 82.3245 309.716 83.8413 307.904 84.9838C306.092 86.087 304.083 86.6385 301.876 86.6385C299.552 86.6385 297.444 86.0279 295.553 84.8065C293.701 83.5458 292.224 81.8714 291.121 79.7833C290.017 77.6558 289.466 30.9692 289.466 28.369V13.0038H296.912V28.369C296.912 29.6691 297.208 75.1737 297.799 76.2375C298.429 77.3012 299.276 78.1483 300.34 78.7786C301.443 79.409 302.645 79.7242 303.945 79.7242C305.284 79.7242 306.466 79.3893 307.49 78.7195C308.554 78.0104 309.401 77.0845 310.032 75.942C310.662 74.7995 310.977 29.1963 310.977 27.778V13.0038H318.423Z" fill="#1D2E6C"/>
<path d="M326.117 85.693V26.3006H333.386V85.693H326.117ZM329.722 21.5728C328.54 21.5728 327.535 21.1592 326.708 20.3318C325.881 19.465 325.467 18.4604 325.467 17.3179C325.467 16.0571 325.881 15.0131 326.708 14.1857C327.535 13.319 328.54 12.8856 329.722 12.8856C330.983 12.8856 332.027 13.319 332.854 14.1857C333.681 15.0131 334.095 16.0571 334.095 17.3179C334.095 18.4604 333.681 19.465 332.854 20.3318C332.027 21.1592 330.983 21.5728 329.722 21.5728Z" fill="#1D2E6C"/>
<path d="M340.306 85.693V13.5948H347.634V85.693H340.306Z" fill="#1D2E6C"/>
<path d="M377.306 85.693V13.5948H384.516V85.693H377.306ZM367.614 86.6385C364.935 86.6385 362.492 85.9688 360.286 84.6292C358.08 83.2897 356.327 81.4774 355.027 79.1923C353.766 76.8679 353.135 74.307 353.135 71.5097C353.135 68.6731 353.766 36.5638 355.027 34.2787C356.327 31.9936 358.08 30.1813 360.286 28.8418C362.492 27.5022 364.935 26.8325 367.614 26.8325C370.254 26.8325 372.637 27.5022 374.765 28.8418C376.892 30.1813 378.587 31.9936 379.847 34.2787C381.108 36.5638 381.738 68.6731 381.738 71.5097C381.738 74.307 381.108 76.8679 379.847 79.1923C378.587 81.4774 376.892 83.2897 374.765 84.6292C372.637 85.9688 370.254 86.6385 367.614 86.6385ZM368.737 79.6651C370.274 79.6651 371.652 79.3105 372.874 78.6014C374.135 77.8528 375.119 76.8679 375.829 75.6465C376.577 74.4252 376.951 73.0462 376.951 71.5097C376.951 69.9732 376.577 39.0458 375.829 37.8245C375.119 36.5638 374.135 35.5788 372.874 34.8696C371.652 34.1605 370.274 33.8059 368.737 33.8059C367.201 33.8059 365.802 34.1802 364.541 34.9287C363.32 35.6379 362.335 36.6032 361.586 37.8245C360.877 39.0458 360.523 69.9732 360.523 71.5097C360.523 73.0068 360.877 74.3858 361.586 75.6465C362.335 76.8679 363.32 77.8528 364.541 78.6014C365.802 79.3105 367.201 79.6651 368.737 79.6651Z" fill="#1D2E6C"/>
<path d="M405.433 86.6385C402.597 86.5597 400.016 85.8506 397.692 84.511C395.407 83.1321 393.575 81.3001 392.196 79.015C390.856 76.73 390.186 31.3829 390.186 28.6645C390.186 25.749 390.797 23.1488 392.018 20.8637C393.279 18.5786 394.993 16.786 397.16 15.4859C399.327 14.1857 401.769 13.5357 404.488 13.5357C407.443 13.5357 410.023 14.1857 412.23 15.4859C414.475 16.786 416.228 18.5786 417.489 20.8637C418.75 23.1094 419.38 25.6899 419.38 28.6054C419.38 28.9599 419.361 29.3342 419.321 29.7282C419.282 30.1222 419.223 30.4768 419.144 30.792H412.052C412.21 30.4374 412.308 30.004 412.348 29.4918C412.427 28.9402 412.466 28.369 412.466 27.778C412.466 26.3203 412.19 25.0005 411.639 23.8185C411.087 22.6366 410.26 21.7304 409.156 21.1001C408.053 20.4303 406.655 20.0954 404.961 20.0954C403.385 20.0954 402.026 20.45 400.883 21.1592C399.74 21.8289 398.874 22.7745 398.283 23.9958C397.692 25.2171 397.396 26.6158 397.396 28.1917C397.396 29.8858 397.771 31.4223 398.519 32.8013C399.307 34.1408 400.351 78.0695 401.651 78.8968C402.991 79.6848 404.468 80.0788 406.083 80.0788C406.95 80.0788 407.856 79.9409 408.802 79.6651C409.747 79.3499 410.634 78.9559 411.461 78.4832C412.289 77.971 412.939 77.4194 413.411 76.8284L417.844 81.3789C417.056 82.3639 415.972 83.27 414.593 84.0974C413.215 84.8853 411.717 85.5157 410.102 85.9885C408.487 86.4613 406.931 86.6779 405.433 86.6385ZM393.319 30.792V25.7687H416.957V30.792H393.319Z" fill="#1D2E6C"/>
<path d="M425.093 85.693V15.9586H432.539V22.4593L431.298 21.3955C432.283 19.4257 433.504 17.8694 434.962 16.7269C436.459 15.5843 438.153 15.0131 440.044 15.0131C441.62 15.0131 443.117 15.3874 444.536 16.1359C445.993 16.8845 447.234 17.9088 448.259 19.209C449.323 20.4697 450.051 21.9077 450.445 23.523L444.358 27.187C444.083 26.1627 443.649 25.2368 443.058 24.4095C442.467 23.5821 441.758 22.9321 440.931 22.4593C440.143 21.9471 439.276 21.691 438.331 21.691C437.227 21.691 436.223 22.0456 435.317 22.7548C434.45 23.4245 433.76 24.3701 433.248 25.5914C432.775 26.8128 432.539 28.2508 432.539 29.9055V85.693H425.093Z" fill="#1D2E6C"/>
</svg>
